<mxfile host="app.diagrams.net" modified="2023-09-06T17:14:28.663Z" agent="Mozilla/5.0 (Macintosh; Intel Mac OS X 10_15_7) AppleWebKit/605.1.15 (KHTML, like Gecko) Version/15.6.1 Safari/605.1.15" etag="D6Vf8fxoHKdlWhXiAQ6m" version="21.7.2" type="device">
  <diagram name="Página-1" id="rvVxhckX7hmPNUjHPFgw">
    <mxGraphModel dx="1034" dy="541" grid="1" gridSize="10" guides="1" tooltips="1" connect="1" arrows="1" fold="1" page="1" pageScale="1" pageWidth="827" pageHeight="1169" math="0" shadow="0">
      <root>
        <mxCell id="0" />
        <mxCell id="1" parent="0" />
        <mxCell id="Tqm8gWgQx8-1WAqp1q59-20" value="" style="rounded=0;whiteSpace=wrap;html=1;fillColor=#dae8fc;strokeColor=#6c8ebf;" vertex="1" parent="1">
          <mxGeometry x="650" y="40" width="170" height="370" as="geometry" />
        </mxCell>
        <mxCell id="Tqm8gWgQx8-1WAqp1q59-2" value="" style="rounded=0;whiteSpace=wrap;html=1;fillColor=#dae8fc;strokeColor=#6c8ebf;" vertex="1" parent="1">
          <mxGeometry x="60" y="40" width="310" height="370" as="geometry" />
        </mxCell>
        <mxCell id="Tqm8gWgQx8-1WAqp1q59-3" value="Discovery Server Eureka : porta 8761 : Load Balancer" style="text;html=1;strokeColor=#b85450;fillColor=#f8cecc;align=center;verticalAlign=middle;whiteSpace=wrap;rounded=0;" vertex="1" parent="1">
          <mxGeometry x="60" y="50" width="310" height="30" as="geometry" />
        </mxCell>
        <mxCell id="Tqm8gWgQx8-1WAqp1q59-4" value="MicroserviceA:8080" style="rounded=0;whiteSpace=wrap;html=1;fillColor=#d5e8d4;strokeColor=#82b366;" vertex="1" parent="1">
          <mxGeometry x="70" y="90" width="120" height="60" as="geometry" />
        </mxCell>
        <mxCell id="Tqm8gWgQx8-1WAqp1q59-5" value="MicroserviceA:8081" style="rounded=0;whiteSpace=wrap;html=1;fillColor=#d5e8d4;strokeColor=#82b366;" vertex="1" parent="1">
          <mxGeometry x="230" y="90" width="120" height="60" as="geometry" />
        </mxCell>
        <mxCell id="Tqm8gWgQx8-1WAqp1q59-6" value="MicroserviceA:8083" style="rounded=0;whiteSpace=wrap;html=1;fillColor=#d5e8d4;strokeColor=#82b366;" vertex="1" parent="1">
          <mxGeometry x="230" y="160" width="120" height="60" as="geometry" />
        </mxCell>
        <mxCell id="Tqm8gWgQx8-1WAqp1q59-7" value="MicroserviceA:8082" style="rounded=0;whiteSpace=wrap;html=1;fillColor=#d5e8d4;strokeColor=#82b366;" vertex="1" parent="1">
          <mxGeometry x="70" y="160" width="120" height="60" as="geometry" />
        </mxCell>
        <mxCell id="Tqm8gWgQx8-1WAqp1q59-8" value="GATEWAY (Spring Cloud Gateway)" style="shape=process;whiteSpace=wrap;html=1;backgroundOutline=1;" vertex="1" parent="1">
          <mxGeometry x="450" y="195" width="120" height="60" as="geometry" />
        </mxCell>
        <mxCell id="Tqm8gWgQx8-1WAqp1q59-9" value="User" style="shape=umlActor;verticalLabelPosition=bottom;verticalAlign=top;html=1;outlineConnect=0;" vertex="1" parent="1">
          <mxGeometry x="710" y="100" width="30" height="60" as="geometry" />
        </mxCell>
        <mxCell id="Tqm8gWgQx8-1WAqp1q59-10" value="User" style="shape=umlActor;verticalLabelPosition=bottom;verticalAlign=top;html=1;outlineConnect=0;" vertex="1" parent="1">
          <mxGeometry x="660" y="170" width="30" height="60" as="geometry" />
        </mxCell>
        <mxCell id="Tqm8gWgQx8-1WAqp1q59-11" value="User" style="shape=umlActor;verticalLabelPosition=bottom;verticalAlign=top;html=1;outlineConnect=0;" vertex="1" parent="1">
          <mxGeometry x="760" y="210" width="30" height="60" as="geometry" />
        </mxCell>
        <mxCell id="Tqm8gWgQx8-1WAqp1q59-12" value="User" style="shape=umlActor;verticalLabelPosition=bottom;verticalAlign=top;html=1;outlineConnect=0;" vertex="1" parent="1">
          <mxGeometry x="710" y="210" width="30" height="60" as="geometry" />
        </mxCell>
        <mxCell id="Tqm8gWgQx8-1WAqp1q59-13" value="User" style="shape=umlActor;verticalLabelPosition=bottom;verticalAlign=top;html=1;outlineConnect=0;" vertex="1" parent="1">
          <mxGeometry x="770" y="90" width="30" height="60" as="geometry" />
        </mxCell>
        <mxCell id="Tqm8gWgQx8-1WAqp1q59-14" value="MicroserviceB:8084" style="rounded=0;whiteSpace=wrap;html=1;fillColor=#fff2cc;strokeColor=#d6b656;" vertex="1" parent="1">
          <mxGeometry x="70" y="260" width="120" height="60" as="geometry" />
        </mxCell>
        <mxCell id="Tqm8gWgQx8-1WAqp1q59-15" value="MicroserviceB:8085" style="rounded=0;whiteSpace=wrap;html=1;fillColor=#fff2cc;strokeColor=#d6b656;" vertex="1" parent="1">
          <mxGeometry x="230" y="260" width="120" height="60" as="geometry" />
        </mxCell>
        <mxCell id="Tqm8gWgQx8-1WAqp1q59-16" value="MicroserviceB:8086" style="rounded=0;whiteSpace=wrap;html=1;fillColor=#fff2cc;strokeColor=#d6b656;" vertex="1" parent="1">
          <mxGeometry x="70" y="330" width="120" height="60" as="geometry" />
        </mxCell>
        <mxCell id="Tqm8gWgQx8-1WAqp1q59-17" value="MicroserviceB:8087" style="rounded=0;whiteSpace=wrap;html=1;fillColor=#fff2cc;strokeColor=#d6b656;" vertex="1" parent="1">
          <mxGeometry x="230" y="330" width="120" height="60" as="geometry" />
        </mxCell>
        <mxCell id="Tqm8gWgQx8-1WAqp1q59-18" value="" style="shape=flexArrow;endArrow=classic;startArrow=classic;html=1;rounded=0;exitX=1;exitY=0.5;exitDx=0;exitDy=0;entryX=0;entryY=0.5;entryDx=0;entryDy=0;" edge="1" parent="1" source="Tqm8gWgQx8-1WAqp1q59-2" target="Tqm8gWgQx8-1WAqp1q59-8">
          <mxGeometry width="100" height="100" relative="1" as="geometry">
            <mxPoint x="360" y="330" as="sourcePoint" />
            <mxPoint x="510" y="310" as="targetPoint" />
          </mxGeometry>
        </mxCell>
        <mxCell id="Tqm8gWgQx8-1WAqp1q59-21" value="Milhares de Users Requests" style="text;html=1;strokeColor=#b85450;fillColor=#f8cecc;align=center;verticalAlign=middle;whiteSpace=wrap;rounded=0;" vertex="1" parent="1">
          <mxGeometry x="650" y="360" width="170" height="30" as="geometry" />
        </mxCell>
        <mxCell id="Tqm8gWgQx8-1WAqp1q59-22" value="" style="shape=flexArrow;endArrow=classic;startArrow=classic;html=1;rounded=0;entryX=0;entryY=0.5;entryDx=0;entryDy=0;" edge="1" parent="1" source="Tqm8gWgQx8-1WAqp1q59-8" target="Tqm8gWgQx8-1WAqp1q59-20">
          <mxGeometry width="100" height="100" relative="1" as="geometry">
            <mxPoint x="590" y="225" as="sourcePoint" />
            <mxPoint x="480" y="235" as="targetPoint" />
          </mxGeometry>
        </mxCell>
        <mxCell id="Tqm8gWgQx8-1WAqp1q59-23" value="REQUEST" style="endArrow=classic;html=1;rounded=0;" edge="1" parent="1">
          <mxGeometry width="50" height="50" relative="1" as="geometry">
            <mxPoint x="600" y="170" as="sourcePoint" />
            <mxPoint x="430" y="170" as="targetPoint" />
          </mxGeometry>
        </mxCell>
        <mxCell id="Tqm8gWgQx8-1WAqp1q59-24" value="RESPONSE" style="endArrow=classic;html=1;rounded=0;" edge="1" parent="1">
          <mxGeometry width="50" height="50" relative="1" as="geometry">
            <mxPoint x="440" y="290" as="sourcePoint" />
            <mxPoint x="600" y="290" as="targetPoint" />
          </mxGeometry>
        </mxCell>
        <mxCell id="Tqm8gWgQx8-1WAqp1q59-25" value="http://br.com.empresa/api/{service}" style="text;html=1;strokeColor=none;fillColor=none;align=center;verticalAlign=middle;whiteSpace=wrap;rounded=0;" vertex="1" parent="1">
          <mxGeometry x="420" y="120" width="180" height="30" as="geometry" />
        </mxCell>
        <mxCell id="Tqm8gWgQx8-1WAqp1q59-26" value="&lt;h1&gt;Como funciona:&lt;/h1&gt;&lt;div&gt;Clientes fazem a requisição com a URL do serviço que é interceptada pelo GATEWAY e a envia para o LOADBALANCER (Eureka server), este por sua vez tem todos os Microserviços registrados dentro&lt;span style=&quot;white-space: pre;&quot;&gt;&amp;nbsp;do seu &quot;mundo&quot; e decide pra qual imagem enviar a requisição.&lt;/span&gt;&lt;/div&gt;&lt;div&gt;&lt;span style=&quot;white-space: pre;&quot;&gt;&lt;br&gt;&lt;/span&gt;&lt;/div&gt;&lt;div&gt;&lt;span style=&quot;white-space: pre;&quot;&gt;Lembrando que podemos ter vários Eureka Server quantos forem necessários.&lt;/span&gt;&lt;/div&gt;" style="text;html=1;strokeColor=none;fillColor=none;spacing=5;spacingTop=-20;whiteSpace=wrap;overflow=hidden;rounded=0;" vertex="1" parent="1">
          <mxGeometry x="60" y="420" width="760" height="120" as="geometry" />
        </mxCell>
      </root>
    </mxGraphModel>
  </diagram>
</mxfile>
